<?xml version="1.0" standalone="no"?>
<!DOCTYPE svg PUBLIC "-//W3C//DTD SVG 20010904//EN"
 "http://www.w3.org/TR/2001/REC-SVG-20010904/DTD/svg10.dtd">
<svg version="1.0" xmlns="http://www.w3.org/2000/svg"
 width="2048.000000pt" height="2048.000000pt" viewBox="0 0 2048.000000 2048.000000"
 preserveAspectRatio="xMidYMid meet">

<g transform="translate(0.000000,2048.000000) scale(0.100000,-0.100000)"
fill="#000000" stroke="none">
<path d="M9030 18594 c-116 -32 -273 -148 -466 -345 -308 -317 -493 -648 -606
-1084 -33 -128 -33 -133 -33 -350 1 -204 2 -227 27 -325 48 -191 125 -377 213
-515 88 -137 332 -392 490 -511 182 -138 393 -257 725 -412 279 -130 538 -231
1025 -399 198 -69 403 -140 455 -158 250 -87 1029 -372 1174 -429 90 -35 275
-112 412 -169 137 -58 344 -143 459 -190 463 -188 592 -248 1010 -477 464
-253 748 -466 1149 -860 263 -259 701 -745 850 -945 258 -344 407 -597 519
-880 55 -139 163 -483 154 -491 -2 -2 -49 57 -103 132 -220 303 -388 496 -711
815 -234 231 -381 366 -532 489 -461 373 -1040 703 -1652 941 -325 126 -406
153 -613 200 -247 56 -310 66 -541 85 -324 27 -548 10 -856 -62 -81 -19 -155
-34 -165 -34 -11 0 -32 -7 -48 -15 -15 -8 -36 -15 -45 -15 -39 0 -385 116
-550 185 -265 110 -410 157 -503 160 -46 2 -108 14 -159 30 -193 61 -327 81
-636 95 -311 15 -417 35 -480 93 -31 28 -64 118 -73 199 -11 98 -82 240 -151
302 -151 136 -465 112 -785 -60 -109 -58 -171 -117 -238 -223 -71 -112 -94
-164 -102 -233 -11 -95 30 -318 75 -406 79 -156 294 -338 547 -465 113 -56
323 -138 454 -177 41 -12 79 -25 83 -30 5 -4 -11 -19 -35 -33 -24 -14 -87 -58
-141 -97 l-98 -72 -20 26 c-29 36 -76 46 -230 46 -203 0 -390 39 -538 113 -72
36 -486 300 -566 360 -72 55 -139 138 -275 337 -183 268 -303 387 -465 461
-266 120 -559 2 -699 -283 -121 -244 -97 -486 83 -833 164 -316 370 -592 604
-809 373 -344 839 -641 1121 -715 44 -12 81 -22 82 -24 2 -1 -25 -86 -60 -187
-117 -340 -204 -732 -281 -1257 -50 -347 -72 -459 -115 -610 -30 -105 -105
-268 -134 -292 -26 -22 -78 -5 -167 54 -45 30 -87 56 -92 58 -6 2 1 36 16 82
95 289 124 520 107 865 -18 350 -46 522 -117 705 -82 209 -181 364 -311 487
-132 124 -227 149 -571 148 -239 0 -372 -15 -496 -56 -130 -41 -374 -102 -460
-113 -113 -15 -313 -29 -666 -46 -255 -12 -320 -19 -404 -39 -261 -64 -438
-158 -628 -333 -32 -29 -66 -53 -76 -53 -30 0 -322 78 -431 115 -204 69 -455
125 -719 160 -205 27 -248 17 -271 -63 -31 -115 16 -491 89 -711 84 -250 276
-542 519 -788 l94 -96 -31 -156 c-165 -837 -136 -1693 84 -2506 191 -704 510
-1355 950 -1940 778 -1035 1832 -1749 3270 -2218 627 -205 1318 -341 2095
-413 234 -21 946 -30 1220 -15 916 52 1688 195 2505 466 851 283 1649 698
2280 1189 447 347 858 773 1188 1233 290 404 573 934 782 1468 80 204 192 547
241 740 21 83 44 155 51 160 8 6 24 87 41 210 28 195 30 202 64 247 30 38 164
288 256 473 44 90 190 546 217 680 53 267 86 644 86 995 1 476 -69 826 -298
1495 -129 379 -228 607 -363 840 -35 61 -100 175 -145 255 -144 258 -247 401
-526 730 -204 241 -975 959 -1375 1281 -340 274 -867 581 -1414 821 -333 147
-1028 416 -1592 618 -251 90 -440 163 -948 365 -489 194 -839 332 -1002 393
-86 33 -177 71 -202 86 -73 43 -233 255 -300 397 -74 156 -91 269 -65 415 23
132 50 195 217 514 97 186 159 340 173 435 32 200 -40 408 -196 573 -112 119
-235 172 -443 192 -59 6 -125 12 -147 15 -22 2 -65 -2 -95 -11z m363 -200 c83
-21 112 -38 180 -102 154 -147 205 -339 141 -530 -31 -96 -104 -248 -195 -413
-117 -212 -170 -370 -185 -553 -16 -185 66 -408 234 -640 156 -214 191 -241
457 -341 204 -77 772 -300 980 -385 306 -125 711 -280 990 -380 478 -170 1224
-460 1540 -597 187 -81 581 -277 740 -368 359 -206 594 -375 930 -669 361
-316 514 -458 786 -728 235 -233 315 -319 446 -483 192 -242 233 -301 356
-520 52 -94 119 -210 148 -260 130 -223 235 -472 375 -890 188 -564 264 -949
264 -1345 0 -399 -47 -833 -120 -1105 -44 -166 -147 -459 -194 -552 l-41 -83
0 408 c-1 233 -6 469 -13 552 -31 360 -93 626 -217 920 -53 127 -148 434 -231
750 -128 488 -258 789 -493 1140 -206 309 -260 376 -687 861 -205 232 -549
574 -729 723 -167 139 -407 319 -514 386 -110 69 -561 315 -731 400 -145 73
-399 184 -643 281 -84 34 -291 120 -462 191 -170 72 -377 157 -460 189 -298
114 -1271 462 -1745 624 -214 73 -535 195 -665 253 -452 201 -724 353 -920
512 -105 86 -323 315 -383 403 -94 137 -179 341 -219 529 -28 130 -25 393 6
518 57 230 161 484 269 658 146 235 381 488 578 622 l59 39 154 1 c108 0 171
-5 214 -16z m-777 -4847 c55 -28 71 -58 113 -207 109 -382 176 -424 736 -455
149 -8 299 -20 335 -25 133 -22 328 -79 480 -140 40 -16 66 -20 95 -16 73 11
83 9 272 -69 198 -81 434 -162 643 -221 69 -19 194 -58 278 -85 84 -27 199
-61 255 -75 138 -35 400 -122 522 -174 157 -66 449 -227 586 -322 70 -48 97
-86 211 -291 133 -240 205 -343 321 -459 217 -219 459 -347 655 -348 66 0 102
29 102 84 0 53 -39 80 -139 94 -153 22 -324 123 -491 291 -108 108 -171 198
-291 416 -152 278 -187 314 -421 452 -373 220 -603 317 -998 423 -174 47 -227
65 -214 72 5 3 45 13 89 22 447 88 1086 18 1585 -175 85 -33 216 -83 290 -112
175 -66 650 -302 843 -419 472 -284 780 -531 1257 -1008 296 -297 536 -591
770 -945 339 -515 481 -881 529 -1371 31 -310 37 -882 11 -1069 -5 -38 -17
-128 -25 -200 -11 -88 -24 -148 -40 -186 -19 -44 -23 -62 -16 -87 15 -50 -62
-394 -160 -719 -111 -369 -246 -704 -435 -1083 -307 -614 -655 -1101 -1109
-1555 -866 -864 -2128 -1523 -3565 -1860 -930 -219 -2002 -295 -2925 -210
-1068 99 -2052 358 -2942 773 -1285 600 -2265 1565 -2829 2785 -483 1043 -623
2187 -403 3297 19 91 26 110 56 144 32 34 35 43 30 80 -9 64 99 404 140 442
30 28 84 144 77 167 -12 37 200 377 330 529 115 135 282 270 411 335 182 92
326 121 653 134 303 11 678 42 782 64 103 21 322 80 395 105 191 66 713 66
821 0 23 -15 33 -28 30 -39 -3 -9 -18 -70 -35 -136 -16 -66 -45 -156 -64 -201
-70 -162 -194 -335 -291 -406 -28 -20 -51 -28 -82 -28 -57 0 -104 -38 -104
-83 1 -89 119 -119 237 -62 119 58 279 253 379 462 l44 92 67 -6 c130 -11 149
-31 198 -214 41 -155 59 -342 59 -639 1 -238 -1 -276 -22 -378 -56 -279 -128
-469 -207 -547 -26 -26 -51 -60 -56 -75 -14 -40 4 -78 46 -96 30 -12 40 -12
68 -1 29 13 98 76 130 121 13 18 16 17 68 -21 120 -89 220 -121 311 -102 72
16 130 76 190 199 90 184 138 384 209 871 110 766 253 1268 500 1761 159 318
323 570 451 695 80 79 403 317 490 363 91 48 208 80 289 80 71 0 106 -25 144
-105 33 -72 49 -149 28 -141 -8 3 -21 6 -28 6 -12 0 -12 6 1 35 32 76 -36 142
-113 110 -20 -9 -42 -23 -49 -33 -32 -42 -3 -123 50 -136 22 -5 24 -10 19 -46
-5 -33 -2 -45 17 -65 13 -14 29 -25 37 -25 21 0 16 -14 -22 -56 l-34 -39 -1
33 c0 52 -28 137 -51 158 -16 14 -35 19 -74 18 -53 -2 -53 -1 -44 23 30 80
-74 147 -144 93 -31 -24 -50 -78 -41 -114 7 -30 48 -66 75 -66 23 0 23 -4 3
-35 -25 -38 -30 -125 -9 -165 18 -35 73 -90 90 -90 5 0 16 -4 24 -9 11 -7 2
-26 -42 -92 -126 -191 -195 -373 -237 -627 -11 -67 -32 -164 -45 -215 -38
-143 -113 -529 -129 -662 -25 -206 -38 -537 -34 -860 4 -283 7 -322 31 -445
64 -329 163 -577 399 -1003 143 -256 229 -382 280 -409 53 -29 111 -4 123 53
7 32 0 46 -77 152 -71 95 -306 525 -378 689 -113 258 -174 480 -201 733 -19
178 0 866 30 1063 7 46 8 44 29 -73 76 -405 215 -741 454 -1098 153 -228 420
-521 618 -680 454 -361 1234 -676 2010 -811 264 -46 326 -51 590 -50 287 0
378 11 675 84 272 66 437 135 579 242 81 61 109 100 101 143 -14 74 -88 92
-152 37 -148 -127 -299 -191 -623 -266 -429 -98 -738 -98 -1235 0 -695 137
-1382 413 -1787 720 -210 159 -490 465 -654 714 -306 467 -454 972 -454 1559
0 390 71 668 235 916 66 100 139 170 335 320 209 160 529 483 546 551 9 35 -5
73 -36 95 -42 32 -210 49 -585 60 -226 6 -380 15 -435 25 -124 22 -486 145
-627 214 -227 109 -439 281 -496 400 -33 70 -59 199 -55 276 2 49 6 59 21 59
13 0 29 -24 57 -86 95 -215 177 -282 248 -203 32 36 28 69 -17 138 -41 64
-101 194 -141 308 -20 55 -22 69 -11 82 14 16 133 86 148 86 4 0 19 -30 31
-67 51 -148 183 -377 232 -403 63 -34 142 22 125 88 -3 15 -23 52 -44 82 -79
113 -172 327 -158 363 13 34 244 45 303 14z m-2230 -517 c94 -46 213 -163 313
-308 297 -429 258 -392 788 -733 148 -95 200 -122 311 -159 133 -44 274 -69
434 -76 l144 -7 -90 -91 c-50 -50 -118 -128 -151 -173 -95 -131 -237 -372
-341 -580 -71 -143 -101 -193 -114 -193 -44 0 -205 56 -315 110 -210 102 -482
289 -730 503 -283 243 -506 532 -675 872 -68 137 -120 294 -120 360 0 26 5 21
38 -41 101 -190 241 -314 325 -288 37 11 67 45 67 76 0 44 -16 66 -67 90 -55
26 -140 135 -193 248 -32 68 -35 82 -33 153 3 67 0 80 -18 98 -19 19 -20 24
-8 46 12 23 79 83 93 83 3 0 1 -12 -5 -27 -5 -14 -7 -38 -4 -52 8 -38 233
-394 279 -442 46 -47 78 -62 118 -54 36 8 58 40 58 83 0 25 -10 46 -40 80 -23
25 -84 116 -137 201 -119 194 -138 220 -171 233 -26 10 -26 11 -7 19 11 5 57
7 102 6 68 -3 92 -9 149 -37z m3392 -1049 c24 -7 18 -14 -93 -129 -64 -67
-121 -122 -126 -122 -5 0 -9 10 -9 23 0 36 -29 137 -55 195 l-25 54 142 -7
c78 -4 153 -11 166 -14z m-7728 -1936 c226 -32 434 -80 665 -155 83 -27 188
-58 235 -70 47 -12 87 -23 88 -25 2 -2 -23 -41 -55 -87 -32 -46 -87 -128 -122
-183 -92 -147 -283 -535 -322 -652 -18 -57 -37 -103 -41 -103 -11 0 -155 165
-225 255 -229 303 -320 546 -358 963 -7 84 -20 79 135 57z"/>
<path d="M6158 7100 c-111 -19 -261 -86 -365 -164 -333 -251 -393 -823 -150
-1447 157 -400 331 -659 692 -1028 268 -274 398 -380 545 -443 139 -59 270
-26 270 67 0 59 -44 88 -119 78 -52 -7 -139 34 -249 117 -103 78 -507 489
-608 620 -323 416 -519 949 -501 1364 13 298 115 485 322 593 146 75 227 88
331 53 121 -42 302 -170 334 -236 23 -46 28 -114 11 -157 -19 -48 -76 -129
-161 -227 -108 -125 -134 -175 -133 -260 0 -41 9 -86 22 -121 36 -94 137 -236
245 -345 115 -115 218 -186 476 -330 343 -191 694 -444 874 -629 61 -62 205
-227 267 -305 203 -256 335 -564 368 -860 28 -254 -61 -497 -248 -672 -122
-115 -237 -165 -576 -251 -188 -48 -309 -71 -434 -83 -87 -7 -121 -32 -121
-84 0 -120 139 -119 627 5 360 92 497 157 648 309 141 143 238 329 272 526 46
260 -53 677 -234 981 -101 171 -310 426 -490 599 -201 195 -526 426 -853 609
-102 57 -223 128 -270 158 -195 127 -400 383 -400 499 0 22 19 48 162 225 37
46 85 117 105 158 35 69 38 83 38 156 -1 159 -49 240 -211 356 -191 137 -348
192 -486 169z"/>
<path d="M5973 6785 c-27 -19 -55 -89 -47 -120 10 -40 59 -75 105 -75 53 0 78
14 95 56 13 30 12 39 -1 71 -24 58 -53 83 -95 83 -19 0 -45 -7 -57 -15z"/>
<path d="M6222 6737 c-24 -25 -29 -75 -12 -108 14 -25 62 -49 100 -49 58 0 94
64 66 118 -33 64 -112 84 -154 39z"/>
<path d="M5775 6605 c-25 -24 -32 -65 -19 -100 9 -23 62 -48 90 -41 92 23 78
166 -16 166 -19 0 -40 -9 -55 -25z"/>
<path d="M6342 6540 c-29 -27 -37 -64 -22 -99 17 -42 43 -62 87 -68 51 -7 91
25 100 79 5 33 2 41 -30 73 -28 28 -43 35 -74 35 -26 0 -47 -7 -61 -20z"/>
<path d="M5954 6489 c-79 -23 -101 -106 -50 -193 47 -81 147 -136 222 -121 42
7 90 55 96 94 6 44 -15 115 -47 156 -48 63 -136 89 -221 64z"/>
</g>
</svg>
